<svg width="512" height="512" xmlns="http://www.w3.org/2000/svg">

 <g>
  <title>Layer 1</title>
  <circle stroke="null" id="svg_1" fill="#05bc15" r="256" cy="256" cx="256"/>
  <circle id="svg_2" fill="#05aa13" r="173.714" cy="256" cx="256"/>
  <path id="svg_3" fill="#049811" d="m118.857,256c0,-120.917 83.858,-222.184 196.571,-248.99c-19.079,-4.538 -38.961,-7.01 -59.428,-7.01c-141.385,0 -256,114.615 -256,256c0,141.384 114.615,256 256,256c20.469,0 40.349,-2.472 59.429,-7.009c-112.714,-26.808 -196.572,-128.076 -196.572,-248.991z"/>
  <path id="svg_4" fill="#06cd17" d="m166.873,404.905c-30.123,-41.966 -48.016,-93.297 -48.016,-148.905s17.893,-106.939 48.015,-148.905c-50.607,30.36 -84.586,85.594 -84.586,148.905s33.979,118.545 84.587,148.905z"/>
  <path id="svg_5" fill="#FFFFFF" d="m430.535,145.464c-3.571,-3.571 -9.358,-3.571 -12.929,0l-52.193,52.189c-3.826,3.826 -10.031,3.826 -13.857,0l-1.283,-1.283c-3.826,-3.826 -3.826,-10.031 0,-13.857l52.035,-52.035c3.571,-3.571 3.571,-9.357 0,-12.928c-3.571,-3.571 -9.358,-3.571 -12.929,0l-52.035,52.035c-3.826,3.826 -10.031,3.826 -13.857,0l0,0c-3.826,-3.826 -3.826,-10.031 0,-13.857l52.191,-52.19c3.571,-3.571 3.571,-9.357 0,-12.928c-3.571,-3.571 -9.358,-3.571 -12.929,0l-55.759,55.754c-8.651,8.647 -13.759,19.656 -14.018,30.309l-0.274,23.821c-0.029,2.52 -1.097,4.915 -2.951,6.622l-172.386,158.634c-10.147,10.147 -10.147,26.6 0,36.747s26.6,10.147 36.747,0l158.359,-172.083c1.747,-1.899 4.217,-2.971 6.799,-2.952l24.439,0.19c0.187,0 0.366,0.005 0.553,0.005c10.813,0 21.911,-4.902 30.518,-13.504l55.759,-55.759c3.571,-3.572 3.571,-9.359 0,-12.93z"/>
  <path id="svg_6" fill="#cefffd" d="m269.682,225.577l-72.863,67.051l16.296,16.296c5.002,5.002 11.171,8.335 17.847,10.057l63.319,-68.807l-24.599,-24.597z"/>
  <path id="svg_7" fill="#FFFFFF" d="m130.811,112.566l253.934,253.934c10.147,10.147 10.147,26.6 0,36.747l0,0c-10.147,10.147 -26.6,10.147 -36.747,0l-61.653,-61.653c-6.314,-6.314 -7.718,-15.68 -4.209,-23.35c1.848,-4.04 1.544,-8.714 -1.598,-11.856l-10.394,-10.394c-4.059,-4.059 -10.64,-4.059 -14.699,0l0,0c-8.118,8.118 -21.28,8.118 -29.398,0l-70.163,-70.163c-52.089,-52.089 -47.176,-91.744 -39.981,-110.32c2.352,-6.072 10.304,-7.55 14.908,-2.945z"/>
  <g id="svg_8"/>
  <g id="svg_9"/>
  <g id="svg_10"/>
  <g id="svg_11"/>
  <g id="svg_12"/>
  <g id="svg_13"/>
  <g id="svg_14"/>
  <g id="svg_15"/>
  <g id="svg_16"/>
  <g id="svg_17"/>
  <g id="svg_18"/>
  <g id="svg_19"/>
  <g id="svg_20"/>
  <g id="svg_21"/>
  <g id="svg_22"/>
 </g>
</svg>